<svg width="180" height="34" viewBox="0 0 180 34" fill="none" xmlns="http://www.w3.org/2000/svg">
<path d="M15.1757 22.3076C17.8215 22.3076 19.9662 20.1628 19.9662 17.5171C19.9662 14.8713 17.8215 12.7266 15.1757 12.7266C12.53 12.7266 10.3853 14.8713 10.3853 17.5171C10.3853 20.1628 12.53 22.3076 15.1757 22.3076Z" stroke="#B89478" stroke-width="1.5" stroke-linecap="round" stroke-linejoin="round"/>
<path d="M12.7369 13.3921C11.5542 11.163 10.385 8.51174 10.385 6.73776C10.385 5.46724 10.8898 4.24876 11.7881 3.35037C12.6865 2.45198 13.905 1.94727 15.1755 1.94727C16.4461 1.94727 17.6645 2.45198 18.5629 3.35037C19.4613 4.24876 19.966 5.46724 19.966 6.73776C19.966 8.51174 18.7968 11.163 17.6142 13.3921" stroke="#B89478" stroke-width="1.5" stroke-linecap="round" stroke-linejoin="round"/>
<path d="M10.3852 17.5654C7.86267 17.4756 4.98239 17.1627 3.44644 16.275C2.89346 15.9647 2.40757 15.5477 2.01696 15.0483C1.62635 14.5488 1.33877 13.9768 1.17091 13.3653C1.00306 12.7539 0.958253 12.1152 1.0391 11.4863C1.11995 10.8574 1.32485 10.2508 1.64191 9.70171C1.95897 9.1526 2.38188 8.6719 2.88613 8.28747C3.39038 7.90305 3.96592 7.62256 4.5794 7.46226C5.19287 7.30196 5.83206 7.26504 6.45991 7.35364C7.08776 7.44225 7.69178 7.65461 8.23693 7.97842C9.77288 8.86466 11.4855 11.203 12.8238 13.3423" stroke="#B89478" stroke-width="1.5" stroke-linecap="round" stroke-linejoin="round"/>
<path d="M12.8238 21.6899C11.4855 23.8292 9.77288 26.1675 8.23693 27.0538C7.69178 27.3776 7.08776 27.5899 6.45991 27.6786C5.83206 27.7672 5.19287 27.7302 4.5794 27.5699C3.96592 27.4096 3.39038 27.1291 2.88613 26.7447C2.38188 26.3603 1.95897 25.8796 1.64191 25.3305C1.32485 24.7814 1.11995 24.1748 1.0391 23.5459C0.958253 22.917 1.00306 22.2783 1.17091 21.6669C1.33877 21.0554 1.62635 20.4834 2.01696 19.9839C2.40757 19.4844 2.89346 19.0675 3.44644 18.7572C4.98239 17.8695 7.86267 17.5596 10.3852 17.4668" stroke="#B89478" stroke-width="1.5" stroke-linecap="round" stroke-linejoin="round"/>
<path d="M17.6144 21.6406C18.7971 23.8697 19.9662 26.5209 19.9662 28.2949C19.9662 29.5654 19.4615 30.7839 18.5631 31.6823C17.6647 32.5807 16.4463 33.0854 15.1757 33.0854C13.9052 33.0854 12.6867 32.5807 11.7884 31.6823C10.89 30.7839 10.3853 29.5654 10.3853 28.2949C10.3853 26.5209 11.5544 23.8697 12.7371 21.6406" stroke="#B89478" stroke-width="1.5" stroke-linecap="round" stroke-linejoin="round"/>
<path d="M19.966 17.4668C22.4885 17.5566 25.3688 17.8695 26.9047 18.7572C27.4577 19.0675 27.9436 19.4844 28.3342 19.9839C28.7248 20.4834 29.0124 21.0554 29.1803 21.6669C29.3481 22.2783 29.3929 22.917 29.3121 23.5459C29.2312 24.1748 29.0263 24.7814 28.7093 25.3305C28.3922 25.8796 27.9693 26.3603 27.465 26.7447C26.9608 27.1291 26.3852 27.4096 25.7718 27.5699C25.1583 27.7302 24.5191 27.7672 23.8913 27.6786C23.2634 27.5899 22.6594 27.3776 22.1142 27.0538C20.5783 26.1675 18.8657 23.8292 17.5273 21.6899" stroke="#B89478" stroke-width="1.5" stroke-linecap="round" stroke-linejoin="round"/>
<path d="M17.5273 13.3423C18.8657 11.203 20.5783 8.86466 22.1142 7.97842C22.6594 7.65461 23.2634 7.44225 23.8913 7.35364C24.5191 7.26504 25.1583 7.30196 25.7718 7.46226C26.3852 7.62256 26.9608 7.90305 27.465 8.28747C27.9693 8.6719 28.3922 9.1526 28.7093 9.70171C29.0263 10.2508 29.2312 10.8574 29.3121 11.4863C29.3929 12.1152 29.3481 12.7539 29.1803 13.3653C29.0124 13.9768 28.7248 14.5488 28.3342 15.0483C27.9436 15.5477 27.4577 15.9647 26.9047 16.275C25.3688 17.1627 22.4885 17.4726 19.966 17.5654" stroke="#B89478" stroke-width="1.5" stroke-linecap="round" stroke-linejoin="round"/>
<path d="M47.0628 25H43.9378V10.875H38.2919V8.125H52.7086V10.875H47.0628V25ZM54.6556 25V7.5H57.7597V14.3542H57.8431C58.2458 13.6736 58.7944 13.1597 59.4889 12.8125C60.1833 12.4514 61.0028 12.2708 61.9472 12.2708C63.5167 12.2708 64.7597 12.7431 65.6764 13.6875C66.6069 14.6319 67.0722 15.8889 67.0722 17.4583V25H63.9681V18.0417C63.9681 17.0556 63.7042 16.3056 63.1764 15.7917C62.6486 15.2778 61.8778 15.0208 60.8639 15.0208C59.85 15.0208 59.0792 15.2778 58.5514 15.7917C58.0236 16.3056 57.7597 17.0556 57.7597 18.0417V25H54.6556ZM75.8102 25.25C74.4768 25.25 73.3102 24.9861 72.3102 24.4583C71.3241 23.9167 70.5602 23.1597 70.0185 22.1875C69.4907 21.2014 69.2268 20.0417 69.2268 18.7083C69.2268 17.375 69.4907 16.2292 70.0185 15.2708C70.5463 14.2986 71.2963 13.5556 72.2685 13.0417C73.2407 12.5139 74.3796 12.25 75.6852 12.25C76.963 12.25 78.0602 12.5 78.9768 13C79.8935 13.4861 80.6018 14.1944 81.1018 15.125C81.6018 16.0417 81.8518 17.1319 81.8518 18.3958V19.4792H72.206C72.331 20.5347 72.6991 21.3472 73.3102 21.9167C73.9352 22.4722 74.7616 22.75 75.7893 22.75C76.5532 22.75 77.1713 22.6111 77.6435 22.3333C78.1296 22.0417 78.4699 21.6111 78.6643 21.0417H81.7893C81.4977 22.3611 80.8241 23.3958 79.7685 24.1458C78.7268 24.8819 77.4074 25.25 75.8102 25.25ZM72.2893 17.375H78.8727C78.7616 16.5139 78.4282 15.8611 77.8727 15.4167C77.331 14.9583 76.6018 14.7292 75.6852 14.7292C74.7824 14.7292 74.0393 14.9583 73.456 15.4167C72.8727 15.875 72.4838 16.5278 72.2893 17.375ZM85.0745 25V15.6042H83.5328V12.5H86.6995V14.9167H87.5745C87.9217 14.0833 88.4564 13.4514 89.1787 13.0208C89.9009 12.5903 90.7273 12.375 91.6578 12.375H92.6995V15.0417H91.512C90.3731 15.0417 89.5259 15.3681 88.9703 16.0208C88.4148 16.6736 88.137 17.5417 88.137 18.625V25H85.0745ZM95.4375 30V15.6042H93.8958V12.5H97.0833V14.5H97.9583C98.3888 13.7778 98.9722 13.2222 99.7083 12.8333C100.444 12.4444 101.333 12.25 102.375 12.25C103.653 12.25 104.736 12.5208 105.625 13.0625C106.514 13.5903 107.187 14.3403 107.646 15.3125C108.104 16.2847 108.333 17.4306 108.333 18.75C108.333 20.0694 108.104 21.2153 107.646 22.1875C107.201 23.1597 106.556 23.9167 105.708 24.4583C104.861 24.9861 103.84 25.25 102.646 25.25C101.701 25.25 100.889 25.0694 100.208 24.7083C99.5277 24.3472 99 23.8403 98.625 23.1875H98.5416V30H95.4375ZM101.812 22.5625C102.937 22.5625 103.785 22.2292 104.354 21.5625C104.937 20.8819 105.229 19.9444 105.229 18.75C105.229 17.5556 104.937 16.625 104.354 15.9583C103.785 15.2778 102.937 14.9375 101.812 14.9375C100.826 14.9375 100.035 15.2222 99.4375 15.7917C98.8402 16.3472 98.5416 17.1042 98.5416 18.0625V19.4375C98.5416 20.3958 98.8402 21.1597 99.4375 21.7292C100.035 22.2847 100.826 22.5625 101.812 22.5625ZM110.378 30V27.5208H113.211L114.274 24.9375L108.815 12.5H112.086L115.836 21.3542H115.94L119.565 12.5H122.711L117.357 25L116.274 27.5833C115.94 28.3472 115.572 28.9375 115.17 29.3542C114.781 29.7847 114.156 30 113.295 30H110.378ZM127.868 25H124.68V8.125H136.618V10.875H127.868V15.125H135.972V17.875H127.868V25ZM138.598 25V7.5H141.702V25H138.598ZM150.653 25.25C149.306 25.25 148.132 24.9861 147.132 24.4583C146.146 23.9167 145.375 23.1597 144.82 22.1875C144.278 21.2153 144.007 20.0694 144.007 18.75C144.007 17.4167 144.278 16.2639 144.82 15.2917C145.375 14.3194 146.153 13.5694 147.153 13.0417C148.153 12.5139 149.32 12.25 150.653 12.25C152.014 12.25 153.181 12.5139 154.153 13.0417C155.139 13.5694 155.903 14.3194 156.445 15.2917C156.986 16.2639 157.257 17.4167 157.257 18.75C157.257 20.0694 156.986 21.2222 156.445 22.2083C155.903 23.1806 155.139 23.9306 154.153 24.4583C153.167 24.9861 152 25.25 150.653 25.25ZM150.653 22.5417C151.764 22.5417 152.625 22.2083 153.236 21.5417C153.847 20.8611 154.153 19.9306 154.153 18.75C154.153 17.5556 153.847 16.625 153.236 15.9583C152.625 15.2917 151.764 14.9583 150.653 14.9583C149.528 14.9583 148.653 15.2917 148.028 15.9583C147.417 16.625 147.111 17.5486 147.111 18.7292C147.111 19.9236 147.417 20.8611 148.028 21.5417C148.653 22.2083 149.528 22.5417 150.653 22.5417ZM162.012 25L157.991 12.5H161.179L163.804 21.1458H163.908L166.991 12.5H169.97L173.054 21.1458H173.158L175.783 12.5H178.929L174.929 25H171.595L168.512 16.5208H168.429L165.345 25H162.012Z" fill="#191E22"/>
</svg>
