<svg width="47" height="47" viewBox="0 0 47 47" fill="none" xmlns="http://www.w3.org/2000/svg">
<path d="M14.1006 33.5105L2.95351 29.4029C2.64615 29.2895 2.38094 29.0845 2.19362 28.8157C2.00631 28.5469 1.90588 28.2271 1.90588 27.8995C1.90588 27.5719 2.00631 27.2521 2.19362 26.9833C2.38094 26.7145 2.64615 26.5095 2.95351 26.3961L14.1006 22.2885L18.2082 11.1414C18.3217 10.834 18.5266 10.5688 18.7954 10.3815C19.0642 10.1942 19.384 10.0937 19.7116 10.0938C20.0393 10.0937 20.359 10.1942 20.6278 10.3815C20.8967 10.5688 21.1016 10.834 21.215 11.1414L25.3226 22.2885L36.4698 26.3961C36.7771 26.5095 37.0423 26.7145 37.2296 26.9833C37.417 27.2521 37.5174 27.5719 37.5174 27.8995C37.5174 28.2271 37.417 28.5469 37.2296 28.8157C37.0423 29.0845 36.7771 29.2895 36.4698 29.4029L25.3226 33.5105L21.215 44.6576C21.1016 44.965 20.8967 45.2302 20.6278 45.4175C20.359 45.6048 20.0393 45.7052 19.7116 45.7052C19.384 45.7052 19.0642 45.6048 18.7954 45.4175C18.5266 45.2302 18.3217 44.965 18.2082 44.6576L14.1006 33.5105Z" stroke="#191E22" stroke-width="2.353" stroke-linecap="round" stroke-linejoin="round"/>
<path d="M32.6608 2V11.7125" stroke="#191E22" stroke-width="2.353" stroke-linecap="round" stroke-linejoin="round"/>
<path d="M42.3737 13.332V19.807" stroke="#191E22" stroke-width="2.353" stroke-linecap="round" stroke-linejoin="round"/>
<path d="M27.8053 6.85547H37.5178" stroke="#191E22" stroke-width="2.353" stroke-linecap="round" stroke-linejoin="round"/>
<path d="M39.1364 16.5703H45.6114" stroke="#191E22" stroke-width="2.353" stroke-linecap="round" stroke-linejoin="round"/>
</svg>
