<svg width="40" height="37" viewBox="0 0 40 37" fill="none" xmlns="http://www.w3.org/2000/svg">
<path d="M37.2736 8.11719H3.63078C2.78622 8.11719 2.10156 8.80184 2.10156 9.64641V34.1139C2.10156 34.9585 2.78622 35.6431 3.63078 35.6431H37.2736C38.1182 35.6431 38.8028 34.9585 38.8028 34.1139V9.64641C38.8028 8.80184 38.1182 8.11719 37.2736 8.11719Z" stroke="#191E22" stroke-width="2.3" stroke-linecap="round" stroke-linejoin="round"/>
<path d="M28.0979 8.11688V5.05844C28.0979 4.24729 27.7756 3.46936 27.2021 2.8958C26.6285 2.32223 25.8506 2 25.0394 2H15.8641C15.053 2 14.275 2.32223 13.7015 2.8958C13.1279 3.46936 12.8057 4.24729 12.8057 5.05844V8.11688" stroke="#191E22" stroke-width="2.3" stroke-linecap="round" stroke-linejoin="round"/>
<path d="M20.4521 17.293V26.4683" stroke="#191E22" stroke-width="2.3" stroke-linecap="round" stroke-linejoin="round"/>
<path d="M25.0396 21.8789H15.8643" stroke="#191E22" stroke-width="2.3" stroke-linecap="round" stroke-linejoin="round"/>
</svg>
