<svg width="48" height="40" viewBox="0 0 48 40" fill="none" xmlns="http://www.w3.org/2000/svg">
<path d="M24.082 3.5V30.2766" stroke="#C2B6A7" stroke-width="2" stroke-linecap="round" stroke-linejoin="round"/>
<path d="M36.9866 24.2182C38.7249 24.3219 43.3568 23.9397 45.0541 17.2585C46.8011 10.3765 48.3148 1.77344 41.558 1.77344C34.8013 1.77344 24.082 12.0954 24.082 18.9774C24.082 12.0954 13.3628 1.77344 6.60601 1.77344C-0.150749 1.77344 1.36299 10.3765 3.10994 17.2585C4.80723 23.9397 9.43914 24.3219 11.1775 24.2182" stroke="#C2B6A7" stroke-width="2" stroke-linecap="round" stroke-linejoin="round"/>
<path d="M15.4449 22.5039C13.9481 22.6661 12.5304 23.2581 11.3628 24.2084C10.1951 25.1587 9.32756 26.4267 8.86481 27.8593C8.40206 29.2919 8.36391 30.8278 8.75497 32.2816C9.14603 33.7354 9.94957 35.0449 11.0686 36.052C12.1876 37.0591 13.5742 37.7208 15.061 37.9571C16.5479 38.1934 18.0713 37.9942 19.4474 37.3836C20.8235 36.773 21.9934 35.7772 22.8159 34.5162C23.6384 33.2553 24.0783 31.7832 24.0825 30.2777C24.0917 31.7763 24.534 33.2403 25.356 34.4934C26.1779 35.7465 27.3446 36.7353 28.7155 37.3408C30.0863 37.9462 31.603 38.1425 33.0828 37.906C34.5627 37.6696 35.9427 37.0104 37.0566 36.0078C38.1705 35.0053 38.9709 33.7022 39.3614 32.2553C39.7519 30.8085 39.7159 29.2796 39.2577 27.8527C38.7995 26.4259 37.9386 25.1619 36.7787 24.2129C35.6189 23.2639 34.2094 22.6704 32.7201 22.5039" stroke="#C2B6A7" stroke-width="2" stroke-linecap="round" stroke-linejoin="round"/>
</svg>
