<svg width="40" height="39" viewBox="0 0 40 39" fill="none" xmlns="http://www.w3.org/2000/svg">
<path d="M19.9382 19.5078L38.2898 1.15625" stroke="#C2B6A7" stroke-width="2" stroke-linecap="round" stroke-linejoin="round"/>
<path d="M32.9143 6.53079C29.6638 3.28795 25.3146 1.38322 20.727 1.19342C16.1394 1.00361 11.6477 2.54255 8.14044 5.50578C4.63316 8.46902 2.36581 12.6407 1.78693 17.1956C1.20805 21.7504 2.35981 26.3566 5.01436 30.103C7.66891 33.8493 11.6329 36.4629 16.1221 37.4267C20.6113 38.3904 25.2987 37.6342 29.257 35.3075C33.2154 32.9809 36.1563 29.2533 37.498 24.8622C38.8396 20.4711 38.4844 15.7364 36.5024 11.5947" stroke="#C2B6A7" stroke-width="2" stroke-linecap="round" stroke-linejoin="round"/>
<path d="M26.4267 13.0195C24.9088 11.5035 22.9077 10.5672 20.7712 10.3735C18.6346 10.1797 16.4977 10.7407 14.7319 11.9589C12.966 13.1771 11.6828 14.9756 11.1053 17.0417C10.5278 19.1078 10.6925 21.3109 11.5708 23.2682C12.4491 25.2255 13.9854 26.8132 15.9127 27.7553C17.8401 28.6975 20.0366 28.9345 22.1206 28.4252C24.2046 27.9159 26.0443 26.6926 27.3199 24.9677C28.5955 23.2428 29.2264 21.1255 29.103 18.9838" stroke="#C2B6A7" stroke-width="2" stroke-linecap="round" stroke-linejoin="round"/>
</svg>
