<svg width="40" height="40" viewBox="0 0 40 40" fill="none" xmlns="http://www.w3.org/2000/svg">
<path d="M19.9382 38.1603V13.1367" stroke="#191E22" stroke-width="2.06186" stroke-linecap="round" stroke-linejoin="round"/>
<path d="M19.9376 24.2585L11.5964 20.0879" stroke="#191E22" stroke-width="2.06186" stroke-linecap="round" stroke-linejoin="round"/>
<path d="M19.9382 20.0866L28.2794 15.916" stroke="#191E22" stroke-width="2.06186" stroke-linecap="round" stroke-linejoin="round"/>
<path d="M19.9376 28.7653C21.9859 30.4091 24.5517 31.2714 27.1771 31.1981C33.0732 31.0487 38.0258 25.9466 38.0102 20.0487C38.0039 17.8346 37.3368 15.6728 36.0945 13.84C34.8521 12.0073 33.091 10.5871 31.0366 9.76127C30.2052 7.48591 28.6946 5.52104 26.7093 4.13279C24.7241 2.74454 22.3601 2 19.9376 2C17.5151 2 15.1511 2.74454 13.1659 4.13279C11.1806 5.52104 9.66999 7.48591 8.83861 9.76127C6.78313 10.5875 5.02124 12.0088 3.77879 13.8429C2.53634 15.677 1.86994 17.8404 1.86503 20.0557C1.84939 25.9536 6.8037 31.0556 12.6999 31.2051C15.3255 31.2761 17.8908 30.4113 19.9376 28.7653Z" stroke="#191E22" stroke-width="2.06186" stroke-linecap="round" stroke-linejoin="round"/>
</svg>
