<svg width="48" height="48" viewBox="0 0 48 48" fill="none" xmlns="http://www.w3.org/2000/svg">
<path d="M38.3311 31.3283C39.3489 31.3283 40.174 30.5032 40.174 29.4854C40.174 28.4676 39.3489 27.6426 38.3311 27.6426C37.3133 27.6426 36.4883 28.4676 36.4883 29.4854C36.4883 30.5032 37.3133 31.3283 38.3311 31.3283Z" fill="#252525"/>
<path d="M38.3307 35.3821C41.5876 35.3821 44.2278 32.7419 44.2278 29.485C44.2278 26.2281 41.5876 23.5879 38.3307 23.5879C35.0738 23.5879 32.4336 26.2281 32.4336 29.485C32.4336 32.7419 35.0738 35.3821 38.3307 35.3821Z" stroke="#252525" stroke-width="2.21141" stroke-linecap="round" stroke-linejoin="round"/>
<path d="M19.166 26.5371V35.3828C19.166 37.3378 19.9426 39.2127 21.325 40.5951C22.7074 41.9775 24.5824 42.7541 26.5374 42.7541H30.9602C32.9152 42.7541 34.7901 41.9775 36.1725 40.5951C37.5549 39.2127 38.3316 37.3378 38.3316 35.3828" stroke="#252525" stroke-width="2.21141" stroke-linecap="round" stroke-linejoin="round"/>
<path d="M25.0627 7.37109H29.4855V16.0638C29.4855 21.7342 24.9743 26.4629 19.302 26.5367C17.9353 26.5547 16.5787 26.3011 15.3108 25.7906C14.043 25.2801 12.8892 24.5228 11.9164 23.5627C10.9436 22.6026 10.1712 21.4588 9.6441 20.1978C9.11697 18.9367 8.84558 17.5835 8.8457 16.2167V7.37109H13.2685" stroke="#252525" stroke-width="2.21141" stroke-linecap="round" stroke-linejoin="round"/>
</svg>
