<svg width="31" height="28" viewBox="0 0 31 28" fill="none" xmlns="http://www.w3.org/2000/svg">
<path d="M1.09863 1.21484H4.25054L9.07691 18.5871C9.19973 19.0296 9.4641 19.4196 9.82958 19.6975C10.1951 19.9755 10.6415 20.1261 11.1007 20.1263H24.0813C24.5407 20.1264 24.9875 19.9759 25.3532 19.6979C25.719 19.42 25.9835 19.0298 26.1064 18.5871L29.4658 6.46803H5.70961" stroke="#191E22" stroke-width="2" stroke-linecap="round" stroke-linejoin="round"/>
<path d="M10.5535 27.2182C11.5689 27.2182 12.3921 26.3951 12.3921 25.3796C12.3921 24.3642 11.5689 23.541 10.5535 23.541C9.53802 23.541 8.71484 24.3642 8.71484 25.3796C8.71484 26.3951 9.53802 27.2182 10.5535 27.2182Z" fill="#191E22"/>
<path d="M24.2126 27.2182C25.2281 27.2182 26.0513 26.3951 26.0513 25.3796C26.0513 24.3642 25.2281 23.541 24.2126 23.541C23.1972 23.541 22.374 24.3642 22.374 25.3796C22.374 26.3951 23.1972 27.2182 24.2126 27.2182Z" fill="#191E22"/>
</svg>
