<svg width="95" height="81" viewBox="0 0 95 81" fill="none" xmlns="http://www.w3.org/2000/svg">
<circle cx="38.2609" cy="9.56522" r="8.06522" stroke="#B89478" stroke-width="3"/>
<circle cx="9.56522" cy="70.4347" r="8.06522" stroke="#B89478" stroke-width="3"/>
<path d="M27.8261 55.2174V28.9131C27.8261 26.1517 30.0647 23.9131 32.8261 23.9131H44.4507C45.7768 23.9131 47.0485 24.4399 47.9862 25.3776L57.666 35.0573C58.6036 35.995 59.8754 36.5218 61.2015 36.5218H70.6522C73.4136 36.5218 75.6522 38.7604 75.6522 41.5218V44.7827M75.6522 44.7827H87.6087C90.3701 44.7827 92.6087 47.0212 92.6087 49.7827V50.2174C92.6087 52.9789 90.3701 55.2174 87.6087 55.2174H73.1836C71.4719 55.2174 69.8791 56.0931 68.9619 57.5383L57.5598 75.5053C56.6426 76.9505 55.0499 77.8261 53.3382 77.8261H28.913C26.1516 77.8261 23.913 75.5876 23.913 72.8261V67.8037C23.913 65.1377 26.0047 62.9407 28.6674 62.8097L47.9179 61.863C49.501 61.7851 50.9534 60.9613 51.8326 59.6425L61.7391 44.7827M75.6522 44.7827H61.7391M43.913 36.5218L50.26 43.2214C51.2043 44.2181 52.5168 44.7827 53.8898 44.7827H61.7391M71.7391 67.3913H87.6087C90.3701 67.3913 92.6087 69.6299 92.6087 72.3913V74.1305C92.6087 76.8919 90.3701 79.1305 87.6087 79.1305H66.087" stroke="#B89478" stroke-width="3"/>
</svg>
